<svg height="429pt" viewBox="0 0 429.96113 429" width="429pt" xmlns="http://www.w3.org/2000/svg" xmlns:xlink="http://www.w3.org/1999/xlink"><linearGradient id="a"><stop offset=".322" stop-color="#a163f5"/><stop offset=".466" stop-color="#b074ee"/><stop offset=".752" stop-color="#d8a1dd"/><stop offset=".898" stop-color="#efbad3"/></linearGradient><linearGradient id="b" gradientTransform="matrix(1 0 0 -1 -40.999333 473.481185)" gradientUnits="userSpaceOnUse" x1="238.3" x2="238.3" xlink:href="#a" y1="17.518" y2="570.222"/><linearGradient id="c" gradientTransform="matrix(1 0 0 -1 -40.999333 473.481185)" gradientUnits="userSpaceOnUse" x1="256" x2="256" xlink:href="#a" y1="17.518" y2="570.222"/><path d="m224.199219 115.882812c-3.890625-3.894531-10.203125-3.894531-14.097657 0-3.894531 3.890626-3.894531 10.203126 0 14.097657l75.5 75.5h-200.601562c-5.523438 0-10 4.476562-10 10 0 5.523437 4.476562 10 10 10h200.5l-75.5 75.5c-1.871094 1.867187-2.925781 4.40625-2.925781 7.050781s1.054687 5.179688 2.925781 7.050781c1.875 1.886719 4.4375 2.933594 7.101562 2.898438 2.652344-.011719 5.199219-1.050781 7.097657-2.898438l92.5-92.5c1.882812-1.882812 2.929687-4.441406 2.902343-7.101562-.019531-2.652344-1.058593-5.191407-2.902343-7.097657zm0 0" fill="url(#b)"/><path d="m215 .480469c-86.960938-.015625-165.363281 52.363281-198.640625 132.707031-33.273437 80.34375-14.867187 172.820312 46.640625 234.292969 83.949219 83.949219 220.054688 83.949219 304 0 83.949219-83.945313 83.949219-220.050781 0-304-40.222656-40.453125-94.953125-63.136719-152-63zm0 410c-107.5 0-195-87.5-195-195s87.5-195 195-195 195 87.5 195 195-87.5 195-195 195zm0 0" fill="url(#c)"/></svg>